<svg width="30" height="30" viewBox="0 0 30 30" fill="none" xmlns="http://www.w3.org/2000/svg">
<rect width="30" height="30" rx="5" fill="#0077FF"/>
<path d="M15.501 21.3359C9.12328 21.3359 5.48556 16.8314 5.33398 9.33594H8.52865C8.63359 14.8374 10.9888 17.1678 12.8543 17.6482V9.33594H15.8624V14.0807C17.7046 13.8765 19.64 11.7143 20.293 9.33594H23.3011C23.0551 10.5694 22.5646 11.7374 21.8604 12.7667C21.1563 13.796 20.2535 14.6645 19.2086 15.3179C20.375 15.915 21.4051 16.7601 22.2311 17.7974C23.0572 18.8348 23.6603 20.0408 24.0007 21.3359H20.6894C20.3838 20.211 19.7628 19.2041 18.9041 18.4412C18.0455 17.6784 16.9874 17.1936 15.8624 17.0476V21.3359H15.501Z" fill="white"/>
</svg>
