<svg width="33" height="33" viewBox="0 0 33 33" fill="none" xmlns="http://www.w3.org/2000/svg">
<path d="M24.4299 13.9032L16.2126 7.70312L7.98769 13.9032C7.81765 14.0601 7.71541 14.277 7.70264 14.5081V23.976C7.70323 24.1719 7.78134 24.3596 7.91988 24.4982C8.05843 24.6367 8.24617 24.7148 8.44211 24.7154H13.3734V20.7482C13.3734 19.9962 13.6721 19.275 14.2039 18.7432C14.7356 18.2115 15.4568 17.9128 16.2088 17.9128C16.9608 17.9128 17.682 18.2115 18.2137 18.7432C18.7455 19.275 19.0442 19.9962 19.0442 20.7482V24.7177H23.9747C24.1707 24.7171 24.3586 24.639 24.4972 24.5005C24.6359 24.362 24.7142 24.1742 24.715 23.9782V14.5081C24.7019 14.2771 24.5997 14.0603 24.4299 13.9032Z" stroke="#006499" stroke-width="1.70146" stroke-linecap="round" stroke-linejoin="round"/>
</svg>
