<svg width="33" height="33" viewBox="0 0 33 33" fill="none" xmlns="http://www.w3.org/2000/svg">
<path d="M8.76465 24.7182V23.6548C8.76465 22.6773 8.95719 21.7093 9.33128 20.8062C9.70537 19.903 10.2537 19.0824 10.9449 18.3912C11.6361 17.7 12.4567 17.1517 13.3599 16.7776C14.263 16.4035 15.231 16.2109 16.2085 16.2109C17.1861 16.2109 18.154 16.4035 19.0572 16.7776C19.9603 17.1517 20.7809 17.7 21.4721 18.3912C22.1634 19.0824 22.7117 19.903 23.0858 20.8062C23.4599 21.7093 23.6524 22.6773 23.6524 23.6548V24.7182" stroke="#006499" stroke-width="1.70146" stroke-linecap="round" stroke-linejoin="round"/>
<path d="M16.2082 16.2104C17.3364 16.2104 18.4183 15.7623 19.216 14.9646C20.0137 14.1668 20.4619 13.0849 20.4619 11.9568C20.4619 10.8286 20.0137 9.7467 19.216 8.94899C18.4183 8.15128 17.3364 7.70313 16.2082 7.70312C15.0801 7.70313 13.9982 8.15128 13.2005 8.94899C12.4027 9.7467 11.9546 10.8286 11.9546 11.9568C11.9546 13.0849 12.4027 14.1668 13.2005 14.9646C13.9982 15.7623 15.0801 16.2104 16.2082 16.2104V16.2104Z" stroke="#006499" stroke-width="1.70146" stroke-linecap="round" stroke-linejoin="round"/>
</svg>
