<svg width="33" height="33" viewBox="0 0 33 33" fill="none" xmlns="http://www.w3.org/2000/svg">
<g clip-path="url(#clip0_178_6458)">
<path d="M24.3189 6.85156H8.09832C7.40922 6.85156 6.85059 7.41019 6.85059 8.0993V24.3199C6.85059 25.009 7.40922 25.5676 8.09832 25.5676H24.3189C25.008 25.5676 25.5666 25.009 25.5666 24.3199V8.0993C25.5666 7.41019 25.008 6.85156 24.3189 6.85156Z" stroke="#006499" stroke-width="1.70146" stroke-linecap="round" stroke-linejoin="round"/>
<path d="M17.0405 19.3281H21.8235" stroke="#006499" stroke-width="1.70146" stroke-linecap="round" stroke-linejoin="round"/>
<path d="M10.5938 19.3281H12.8813" stroke="#006499" stroke-width="1.70146" stroke-linecap="round" stroke-linejoin="round"/>
<path fill-rule="evenodd" clip-rule="evenodd" d="M17.0405 19.3296C17.0405 19.7409 16.9185 20.1429 16.69 20.4849C16.4615 20.8269 16.1367 21.0934 15.7567 21.2508C15.3767 21.4082 14.9586 21.4494 14.5552 21.3692C14.1518 21.2889 13.7813 21.0909 13.4904 20.8C13.1996 20.5092 13.0015 20.1387 12.9213 19.7353C12.8411 19.3319 12.8822 18.9137 13.0396 18.5337C13.197 18.1538 13.4636 17.829 13.8056 17.6005C14.1475 17.372 14.5496 17.25 14.9609 17.25C15.5124 17.25 16.0414 17.4691 16.4314 17.8591C16.8214 18.2491 17.0405 18.778 17.0405 19.3296V19.3296Z" stroke="#006499" stroke-width="1.70146" stroke-linecap="round" stroke-linejoin="round"/>
<path d="M17.8722 13.0898H10.5938" stroke="#006499" stroke-width="1.70146" stroke-linecap="round" stroke-linejoin="round"/>
<path fill-rule="evenodd" clip-rule="evenodd" d="M22.0312 13.0913C22.0312 12.68 21.9092 12.2779 21.6807 11.9359C21.4522 11.594 21.1274 11.3274 20.7474 11.17C20.3675 11.0126 19.9493 10.9714 19.5459 11.0517C19.1425 11.1319 18.772 11.33 18.4812 11.6208C18.1903 11.9116 17.9923 12.2822 17.912 12.6856C17.8318 13.089 17.873 13.5071 18.0304 13.8871C18.1878 14.2671 18.4543 14.5919 18.7963 14.8204C19.1383 15.0489 19.5403 15.1708 19.9516 15.1708C20.5032 15.1708 21.0321 14.9517 21.4221 14.5618C21.8121 14.1718 22.0312 13.6428 22.0312 13.0913Z" stroke="#006499" stroke-width="1.70146" stroke-linecap="round" stroke-linejoin="round"/>
</g>
<defs>
<clipPath id="clip0_178_6458">
<rect width="20.4175" height="20.4175" fill="white" transform="translate(6 6)"/>
</clipPath>
</defs>
</svg>
