<svg width="30" height="30" viewBox="0 0 30 30" fill="none" xmlns="http://www.w3.org/2000/svg">
<rect width="30" height="30" rx="5" fill="#4094F7"/>
<path d="M7.15774 14.1825L17.0875 10.0913C18.0677 9.66512 21.3918 8.30137 21.3918 8.30137C21.3918 8.30137 22.926 7.70474 22.7981 9.15371C22.7555 9.75035 22.4146 11.8386 22.0737 14.0973L21.0082 20.7881C21.0082 20.7881 20.923 21.7683 20.1985 21.9388C19.474 22.1093 18.2808 21.3422 18.0677 21.1717C17.8972 21.0438 14.8714 19.1261 13.7634 18.1885C13.465 17.9328 13.1241 17.4214 13.806 16.8248C15.3402 15.4184 17.1727 13.6711 18.2808 12.5631C18.7922 12.0517 19.3036 10.8584 17.1727 12.3074L11.1637 16.356C11.1637 16.356 10.4819 16.7821 9.20335 16.3986C7.92484 16.015 6.43325 15.5036 6.43325 15.5036C6.43325 15.5036 5.41044 14.8644 7.15774 14.1825Z" fill="white"/>
</svg>
